<svg version="1.1" xmlns="http://www.w3.org/2000/svg" viewBox="0 0 451 455.64331210191085" width="40" height="38" className="rounded"><metadata></metadata><defs><style class="style-fonts">
</style></defs><rect x="0" y="0" width="451" height="455.64331210191085" fill="#ffffff"></rect><g stroke-linecap="round" transform="translate(10 10) rotate(0 215.5 217.82165605095543)"><path d="M32 0 C162.88 0.19, 295.9 0.73, 399 0 C422.25 3, 428.1 9.18, 431 32 C427.49 125.47, 427.43 214.45, 431 403.64 C429.51 421.46, 419.54 437.73, 399 435.64 C318.38 433.31, 239.02 432.12, 32 435.64 C8.02 437.95, 3.21 423.02, 0 403.64 C3.14 299.96, 1 196.78, 0 32 C3.54 11.15, 8.39 1.75, 32 0" stroke="none" stroke-width="0" fill="#a5d8ff"></path><path d="M32 0 C120.96 -0.96, 210.52 -0.36, 399 0 M32 0 C136.96 0.73, 242.91 0.84, 399 0 M399 0 C421.04 -0.49, 431 11, 431 32 M399 0 C418.93 -0.44, 429.59 10.63, 431 32 M431 32 C428.65 110.45, 430.25 189.91, 431 403.64 M431 32 C429.74 166.37, 429.69 300.65, 431 403.64 M431 403.64 C429.59 424.74, 421.35 436.87, 399 435.64 M431 403.64 C429.68 423.22, 419.27 434.65, 399 435.64 M399 435.64 C268.24 433.74, 138.24 433.52, 32 435.64 M399 435.64 C308.03 433.91, 215.9 433.3, 32 435.64 M32 435.64 C11.08 435.96, -0.38 423.88, 0 403.64 M32 435.64 C8.92 436.05, -1.67 426.16, 0 403.64 M0 403.64 C-0.33 295.56, 0.35 189.4, 0 32 M0 403.64 C0.6 284.58, 0.66 164.53, 0 32 M0 32 C-0.84 10.36, 9.31 0.06, 32 0 M0 32 C-1.36 9.15, 9.62 -1.9, 32 0" stroke="#1e1e1e" stroke-width="2" fill="none"></path></g><g stroke-linecap="round" transform="translate(45.687898089171995 103.88864484954968) rotate(0 183.92993630573255 160.2366205432316)"><path d="M243.24 8.32 C260.44 10.45, 276.67 20.48, 291.18 29.67 C305.69 38.85, 319.39 50.89, 330.31 63.41 C341.23 75.92, 350.47 89.75, 356.71 104.75 C362.95 119.76, 366.84 137.46, 367.75 153.45 C368.66 169.44, 366.62 185.74, 362.19 200.69 C357.76 215.63, 350.52 229.93, 341.17 243.09 C331.83 256.26, 319.75 269.23, 306.12 279.68 C292.49 290.13, 276.09 299.07, 259.42 305.79 C242.75 312.5, 223.94 317.97, 206.09 319.97 C188.24 321.97, 170.17 320.7, 152.31 317.79 C134.44 314.88, 114.98 309.7, 98.9 302.52 C82.81 295.35, 68.69 285.7, 55.81 274.73 C42.92 263.77, 30.23 250.52, 21.6 236.73 C12.97 222.94, 7.35 207.55, 4.02 191.99 C0.69 176.43, -0.13 158.97, 1.63 143.38 C3.39 127.79, 7.77 112.75, 14.57 98.47 C21.37 84.18, 30.65 69.83, 42.44 57.68 C54.23 45.53, 70.08 34.34, 85.33 25.58 C100.58 16.81, 116.69 9.2, 133.93 5.09 C151.17 0.97, 168.89 -0.15, 188.78 0.88 C208.66 1.91, 241.01 8.26, 253.25 11.26 C265.48 14.26, 263.21 16.35, 262.2 18.89 M231.48 5.12 C248.7 6.34, 266.46 15.42, 281.48 23.98 C296.5 32.55, 309.82 44.75, 321.59 56.52 C333.35 68.29, 344.75 80.3, 352.06 94.59 C359.38 108.88, 363.44 126.53, 365.5 142.27 C367.56 158, 367.45 173.48, 364.4 189 C361.35 204.51, 355.66 221.48, 347.2 235.36 C338.75 249.23, 326.26 261.36, 313.65 272.25 C301.05 283.13, 287.51 293.22, 271.55 300.64 C255.59 308.05, 235.91 313.58, 217.89 316.73 C199.86 319.88, 181.28 321.01, 163.38 319.52 C145.48 318.03, 126.74 314.13, 110.47 307.8 C94.2 301.47, 79.68 292.07, 65.77 281.55 C51.87 271.02, 36.72 257.72, 27.04 244.64 C17.36 231.57, 12.22 217.94, 7.7 203.08 C3.19 188.23, -0.67 171.15, -0.04 155.51 C0.6 139.88, 5.7 124.38, 11.52 109.27 C17.34 94.15, 24.25 77.74, 34.9 64.84 C45.55 51.94, 60.61 41.4, 75.43 31.88 C90.26 22.36, 107.18 13.12, 123.85 7.72 C140.53 2.31, 157.79 -0.2, 175.48 -0.55 C193.16 -0.9, 220.98 4.25, 229.98 5.62 C238.98 6.99, 229.98 5.17, 229.46 7.67" stroke="#1e1e1e" stroke-width="4" fill="none"></path></g><g stroke-linecap="round" transform="translate(53.92356687898075 32.53327476389188) rotate(0 175.69426751592363 145.21443736730356)"><path d="M240.76 9.81 C256.88 12.68, 272.42 23.14, 285.87 32.07 C299.32 41, 311.76 51.34, 321.46 63.39 C331.17 75.44, 339.09 90.46, 344.09 104.39 C349.1 118.32, 351.56 133.01, 351.49 146.97 C351.42 160.93, 348.77 174.8, 343.66 188.15 C338.55 201.5, 330.72 215.28, 320.83 227.06 C310.94 238.83, 298.08 249.75, 284.32 258.82 C270.55 267.9, 254.27 276.32, 238.24 281.51 C222.2 286.69, 205.41 289.1, 188.11 289.91 C170.81 290.72, 151.26 289.62, 134.44 286.37 C117.63 283.12, 102.06 277.58, 87.21 270.4 C72.35 263.22, 56.99 253.76, 45.33 243.28 C33.67 232.79, 24.39 220.52, 17.24 207.49 C10.1 194.47, 4.95 179.18, 2.44 165.13 C-0.08 151.08, -0.3 137.08, 2.16 123.2 C4.62 109.32, 9.42 94.77, 17.18 81.86 C24.95 68.95, 36.85 56.35, 48.74 45.72 C60.63 35.09, 73.67 24.99, 88.52 18.07 C103.37 11.15, 120.96 7.25, 137.86 4.21 C154.75 1.17, 171.33 -1.71, 189.91 -0.16 C208.49 1.38, 238.22 10.26, 249.33 13.47 C260.44 16.69, 257.69 16.82, 256.58 19.11 M206.62 1.94 C222.94 2.27, 239.39 10.89, 254.67 17.28 C269.96 23.67, 285.93 30.44, 298.31 40.3 C310.7 50.16, 320.75 63.78, 328.96 76.41 C337.17 89.05, 343.93 102.08, 347.58 116.1 C351.23 130.13, 352.67 146.43, 350.87 160.56 C349.06 174.69, 343.34 188.01, 336.75 200.86 C330.15 213.71, 322.41 226.74, 311.29 237.67 C300.16 248.6, 284.8 258.54, 270 266.44 C255.21 274.33, 239.08 280.97, 222.52 285.04 C205.96 289.11, 187.58 291.32, 170.64 290.87 C153.7 290.41, 137.42 287.18, 120.9 282.32 C104.37 277.46, 85.51 269.84, 71.49 261.72 C57.47 253.61, 46.98 244.66, 36.79 233.62 C26.61 222.57, 16.25 208.77, 10.38 195.45 C4.52 182.14, 2.54 168.22, 1.61 153.73 C0.68 139.25, 0.56 122.56, 4.81 108.54 C9.05 94.52, 17.76 81.9, 27.1 69.6 C36.44 57.31, 48.25 44.36, 60.84 34.77 C73.44 25.19, 87.28 17.66, 102.66 12.09 C118.03 6.53, 135.89 3.17, 153.09 1.4 C170.29 -0.37, 196.98 0.9, 205.86 1.48 C214.75 2.06, 206.86 2.25, 206.42 4.88" stroke="#1e1e1e" stroke-width="4" fill="none"></path></g><g stroke-linecap="round"><g transform="translate(198.0477707006371 141.4441027893696) rotate(0 -32.39047871850249 59.68220444720333)"><path d="M0.92 0.46 C-9.99 20.28, -53.63 98.77, -64.67 118.43 M-0.06 -0.34 C-11.21 19.68, -55.24 99.74, -65.7 119.7" stroke="#1e1e1e" stroke-width="4" fill="none"></path></g></g><mask></mask><g stroke-linecap="round"><g transform="translate(262.56050955414 165.2292261512555) rotate(0 1.2822582121177106 42.6369082856142)"><path d="M-0.16 -0.5 C0.02 13.73, 1.54 71.39, 1.96 85.83 M-1.7 -1.81 C-1.22 12.54, 3.75 72.22, 4.26 87.08" stroke="#1e1e1e" stroke-width="4" fill="none"></path></g></g><mask></mask><g stroke-linecap="round"><g transform="translate(312.41118530319704 204.5227309615516) rotate(0 -46.752532811350534 1.3564116039986516)"><path d="M-0.78 -0.55 C-8.22 -0.16, -29.14 1.48, -44.76 1.8 C-60.38 2.12, -86.59 1.45, -94.51 1.38 M1 1.78 C-6.61 2.39, -30.37 3.07, -45.91 3.23 C-61.45 3.39, -84.03 2.87, -92.23 2.76" stroke="#1e1e1e" stroke-width="4" fill="none"></path></g></g><mask></mask><g stroke-linecap="round"><g transform="translate(291.9339983718519 177.59812918913576) rotate(0 -30.67080451276138 33.9769746715499)"><path d="M-0.4 -0.21 C-10.75 11.16, -52.89 56.4, -62.94 67.72 M1.6 -1.37 C-8.34 10.27, -50.42 57.58, -60.84 69.33" stroke="#1e1e1e" stroke-width="4" fill="none"></path></g></g><mask></mask><g stroke-linecap="round"><g transform="translate(294.8615991008594 239.67908536649816) rotate(0 -31.03160526852963 -31.171127643573925)"><path d="M-1.17 0.12 C-11.45 -10.25, -51.88 -52.11, -62.08 -62.47 M0.41 -0.86 C-9.9 -11, -51.94 -50.33, -62.48 -60.86" stroke="#1e1e1e" stroke-width="4" fill="none"></path></g></g><mask></mask></svg>